<svg width="22" height="23" viewBox="0 0 22 23" fill="none" xmlns="http://www.w3.org/2000/svg">
<path d="M15.7443 10.808C15.7443 10.311 15.3414 9.90805 14.8443 9.90805C14.3473 9.90805 13.9443 10.311 13.9443 10.808H15.7443ZM8.35761 10.808C8.35761 10.311 7.95467 9.90805 7.45761 9.90805C6.96056 9.90805 6.55761 10.311 6.55761 10.808H8.35761ZM20.1956 6.30786C20.4187 6.75207 20.9596 6.93137 21.4038 6.70834C21.848 6.48531 22.0273 5.9444 21.8043 5.50019L20.1956 6.30786ZM18.5377 1L19.342 0.596166C19.1893 0.291998 18.8781 0.1 18.5377 0.1V1ZM3.76425 1V0.1C3.42389 0.1 3.11265 0.291998 2.95993 0.596166L3.76425 1ZM0.49769 5.50019C0.274658 5.9444 0.453958 6.48531 0.898168 6.70834C1.34238 6.93137 1.88328 6.75207 2.10631 6.30786L0.49769 5.50019ZM21 6.80402C21.497 6.80402 21.9 6.40108 21.9 5.90402C21.9 5.40697 21.497 5.00402 21 5.00402V6.80402ZM1.302 5.00402C0.804946 5.00402 0.402002 5.40697 0.402002 5.90402C0.402002 6.40108 0.804946 6.80402 1.302 6.80402V5.00402ZM21.9 5.90402C21.9 5.40697 21.497 5.00402 21 5.00402C20.5029 5.00402 20.1 5.40697 20.1 5.90402H21.9ZM2.202 5.90402C2.202 5.40697 1.79906 5.00402 1.302 5.00402C0.804946 5.00402 0.402002 5.40697 0.402002 5.90402H2.202ZM13.9443 10.808C13.9443 12.3388 12.6973 13.5861 11.151 13.5861V15.3861C13.6843 15.3861 15.7443 13.34 15.7443 10.808H13.9443ZM11.151 13.5861C9.60465 13.5861 8.35761 12.3388 8.35761 10.808H6.55761C6.55761 13.34 8.61761 15.3861 11.151 15.3861V13.5861ZM21.8043 5.50019L19.342 0.596166L17.7334 1.40383L20.1956 6.30786L21.8043 5.50019ZM18.5377 0.1H3.76425V1.9H18.5377V0.1ZM2.95993 0.596166L0.49769 5.50019L2.10631 6.30786L4.56856 1.40383L2.95993 0.596166ZM21 5.00402H1.302V6.80402H21V5.00402ZM20.1 5.90402V19.3901H21.9V5.90402H20.1ZM20.1 19.3901C20.1 20.2438 19.4041 20.9421 18.5377 20.9421V22.7421C20.3911 22.7421 21.9 21.2449 21.9 19.3901H20.1ZM18.5377 20.9421H3.76425V22.7421H18.5377V20.9421ZM3.76425 20.9421C2.8979 20.9421 2.202 20.2437 2.202 19.3901H0.402002C0.402002 21.2449 1.91087 22.7421 3.76425 22.7421V20.9421ZM2.202 19.3901V5.90402H0.402002V19.3901H2.202Z" fill="#000000"/>
</svg>
