<svg width="23" height="24" viewBox="0 0 23 24" fill="none" xmlns="http://www.w3.org/2000/svg">
<path fill-rule="evenodd" clip-rule="evenodd" d="M8.80349 1H2.95084C1.73929 1.00137 0.757474 1.98554 0.756104 3.2V9.06667C0.757474 10.2811 1.73929 11.2653 2.95084 11.2667H8.80349C10.015 11.2653 10.9969 10.2811 10.9982 9.06667V3.2C10.9969 1.98554 10.015 1.00137 8.80349 1ZM9.53507 9.06667C9.53426 9.47134 9.20719 9.79919 8.80349 9.8H2.95084C2.54714 9.79919 2.22007 9.47134 2.21926 9.06667V3.2C2.22007 2.79533 2.54714 2.46747 2.95084 2.46667H8.80349C9.20719 2.46747 9.53426 2.79533 9.53507 3.2V9.06667ZM20.5088 1H14.6561C13.4446 1.00137 12.4628 1.98554 12.4614 3.2V9.06667C12.4628 10.2811 13.4446 11.2653 14.6561 11.2667H20.5088C21.7203 11.2653 22.7021 10.2811 22.7035 9.06667V3.2C22.7021 1.98554 21.7203 1.00137 20.5088 1ZM21.2404 9.06667C21.2395 9.47134 20.9125 9.79919 20.5088 9.8H14.6561C14.2524 9.79919 13.9254 9.47134 13.9245 9.06667V3.2C13.9254 2.79533 14.2524 2.46747 14.6561 2.46667H20.5088C20.9125 2.46747 21.2395 2.79533 21.2404 3.2V9.06667ZM2.95084 12.7333H8.80349C10.015 12.7347 10.9969 13.7189 10.9982 14.9333V20.8C10.9969 22.0145 10.015 22.9986 8.80349 23H2.95084C1.73929 22.9986 0.757474 22.0145 0.756104 20.8V14.9333C0.757474 13.7189 1.73929 12.7347 2.95084 12.7333ZM8.80349 21.5333C9.20719 21.5325 9.53426 21.2047 9.53507 20.8V14.9333C9.53426 14.5287 9.20719 14.2008 8.80349 14.2H2.95084C2.54714 14.2008 2.22007 14.5287 2.21926 14.9333V20.8C2.22007 21.2047 2.54714 21.5325 2.95084 21.5333H8.80349ZM20.421 19.6749C21.7543 17.7993 21.4308 15.2124 19.6769 13.7247C17.9231 12.237 15.3244 12.3452 13.6996 13.9736C12.0749 15.602 11.9666 18.2069 13.4505 19.9652C14.9344 21.7235 17.5151 22.0481 19.3864 20.7119L21.4546 22.7851C21.7416 23.063 22.1979 23.0591 22.4801 22.7762C22.7623 22.4933 22.7663 22.0359 22.489 21.7482L20.421 19.6749ZM13.9245 17.1333C13.9245 15.5133 15.2347 14.2 16.8509 14.2C18.467 14.2 19.7772 15.5133 19.7772 17.1333C19.7772 18.7534 18.467 20.0667 16.8509 20.0667C15.2356 20.0645 13.9267 18.7525 13.9245 17.1333Z" fill="#000000"/>
<path fill-rule="evenodd" clip-rule="evenodd" d="M2.95084 0.75L8.80349 0.75C10.1535 0.751531 11.2467 1.84797 11.2482 3.19972V9.06667C11.2467 10.4184 10.1537 11.5151 8.80377 11.5167H2.95084C1.60088 11.5151 0.507629 10.4187 0.506104 9.06695L0.506104 3.2C0.507629 1.84826 1.60088 0.751531 2.95084 0.75ZM14.6561 0.75L20.5088 0.75C21.8587 0.751531 22.952 1.84797 22.9535 3.19972V9.06667C22.952 10.4184 21.859 11.5151 20.5091 11.5167H14.6561C13.3062 11.5151 12.2129 10.4187 12.2114 9.06695V3.2C12.2129 1.84826 13.3062 0.751531 14.6561 0.75ZM8.80334 1.25H2.95099C1.87796 1.25129 1.00739 2.12308 1.0061 3.20014V9.06653C1.0074 10.1436 1.87803 11.0154 2.95113 11.0167H8.8032C9.87634 11.0154 10.747 10.1436 10.7482 9.06638V3.20028C10.747 2.12316 9.87642 1.25129 8.80334 1.25ZM20.5086 1.25H14.6563C13.5832 1.25129 12.7126 2.12316 12.7114 3.20028V9.06638C12.7126 10.1436 13.5833 11.0154 14.6564 11.0167H20.5085C21.5816 11.0154 22.4523 10.1436 22.4535 9.06638V3.20028C22.4523 2.12316 21.5817 1.25129 20.5086 1.25ZM2.95084 2.21667L8.80349 2.21667C9.34544 2.21775 9.78399 2.65771 9.78507 3.1995L9.78507 9.06667C9.78399 9.60846 9.34593 10.0489 8.80399 10.05L2.95084 10.05C2.4089 10.0489 1.97034 9.60896 1.96926 9.06716L1.96926 3.2C1.97034 2.65821 2.4089 2.21775 2.95084 2.21667ZM14.6561 2.21667L20.5088 2.21667C21.0507 2.21775 21.4893 2.65771 21.4904 3.1995V9.06667C21.4893 9.60846 21.0512 10.0489 20.5093 10.05L14.6561 10.05C14.1142 10.0489 13.6756 9.60896 13.6746 9.06716L13.6745 3.2C13.6756 2.65821 14.1142 2.21775 14.6561 2.21667ZM2.95113 2.71667C2.68583 2.71731 2.46991 2.9329 2.46926 3.20028V9.06639C2.46991 9.33371 2.68574 9.54926 2.95095 9.55C2.95108 9.55 2.95082 9.55 2.95095 9.55L8.80299 9.55C8.80312 9.55 8.80285 9.55 8.80299 9.55C9.06814 9.54926 9.28432 9.3338 9.28507 9.06657C9.28507 9.06644 9.28507 9.0667 9.28507 9.06657L9.28507 3.2005C9.28507 3.20036 9.28507 3.20063 9.28507 3.2005C9.28432 2.9332 9.06844 2.71731 8.8032 2.71667H2.95113ZM14.6564 2.71667C14.3912 2.71731 14.1753 2.9328 14.1745 3.2001C14.1745 3.20023 14.1745 3.19997 14.1745 3.2001L14.1745 9.06617C14.1745 9.0663 14.1745 9.06604 14.1745 9.06617C14.1753 9.33341 14.3911 9.54926 14.6562 9.55C14.6564 9.55 14.6561 9.55 14.6562 9.55L20.5083 9.55C20.5084 9.55 20.5081 9.55 20.5083 9.55C20.7736 9.54926 20.9898 9.33359 20.9904 9.06617V3.2005C20.9898 2.93302 20.7739 2.71731 20.5085 2.71667H14.6564ZM19.5152 13.9154C17.8607 12.5119 15.4094 12.614 13.8766 14.1502C12.3436 15.6867 12.2413 18.1448 13.6415 19.8039C15.0415 21.4628 17.4759 21.7689 19.2411 20.5084L19.4136 20.3852L21.6299 22.6069C21.8188 22.7884 22.1179 22.7853 22.3031 22.5996C22.4887 22.4136 22.4918 22.1128 22.3103 21.923L20.095 19.7021L20.2172 19.5301C21.4754 17.7602 21.17 15.319 19.5152 13.9154ZM13.5227 13.797C15.2394 12.0765 17.9854 11.9621 19.8386 13.5341C21.6375 15.0599 22.0119 17.6799 20.7436 19.6444L22.6691 21.5747C23.0408 21.9605 23.0354 22.5735 22.6571 22.9528C22.2784 23.3323 21.6659 23.3377 21.2807 22.9647L21.2775 22.9617L19.3557 21.0351C17.3952 22.3059 14.7812 21.9296 13.2594 20.1264C11.6919 18.269 11.8062 15.5173 13.5227 13.797ZM0.506104 14.9331C0.507629 13.5813 1.6006 12.4849 2.95056 12.4833H8.80349C10.1535 12.4849 11.2467 13.5813 11.2482 14.9331V20.8C11.2467 22.1517 10.1537 23.2485 8.80377 23.25H2.95084C1.60088 23.2485 0.507629 22.152 0.506104 20.8003V14.9331ZM1.0061 14.9335V20.7999C1.0074 21.877 1.87803 22.7488 2.95113 22.75H8.8032C9.87634 22.7488 10.747 21.8769 10.7482 20.7997V14.9336C10.747 13.8564 9.87634 12.9846 8.8032 12.9833H2.95113C1.87803 12.9846 1.0074 13.8564 1.0061 14.9335ZM2.95084 13.95L8.80349 13.95C9.34544 13.9511 9.78399 14.391 9.78507 14.9328L9.78507 20.8C9.78399 21.3418 9.34594 21.7823 8.80399 21.7833H2.95084C2.40889 21.7823 1.97034 21.3423 1.96926 20.8005L1.96926 14.9333C1.97034 14.3915 2.4089 13.9511 2.95084 13.95ZM8.80299 14.45H2.95134C2.95121 14.45 2.95148 14.45 2.95134 14.45C2.68613 14.4507 2.46991 14.6663 2.46926 14.9336V20.7997C2.46991 21.0672 2.68595 21.2828 2.95134 21.2833H8.80299C9.06832 21.2828 9.28432 21.0673 9.28507 20.7999C9.28507 20.7998 9.28507 20.8 9.28507 20.7999L9.28507 14.9338C9.28507 14.9337 9.28507 14.934 9.28507 14.9338C9.28432 14.6666 9.06814 14.4507 8.80299 14.45C8.80285 14.45 8.80312 14.45 8.80299 14.45ZM13.6745 17.1333C13.6745 15.3758 15.0961 13.95 16.8509 13.95C18.6057 13.95 20.0272 15.3758 20.0272 17.1333C20.0272 18.8909 18.6057 20.3167 16.8509 20.3167C15.0972 20.3143 13.6769 18.8897 13.6745 17.1333ZM14.1745 17.133C14.1765 18.6149 15.3743 19.8147 16.8512 19.8167C18.3286 19.8165 19.5272 18.6158 19.5272 17.1333C19.5272 15.6508 18.3284 14.45 16.8509 14.45C15.3735 14.45 14.1747 15.6506 14.1745 17.133Z" fill="#000000"/>
</svg>
