<svg width="17" height="12" viewBox="0 0 17 12" fill="none" xmlns="http://www.w3.org/2000/svg">
<path d="M15.9425 1.24722L5.94253 11.2472C5.88449 11.3053 5.81556 11.3514 5.73968 11.3829C5.66381 11.4143 5.58248 11.4305 5.50035 11.4305C5.41821 11.4305 5.33688 11.4143 5.26101 11.3829C5.18513 11.3514 5.1162 11.3053 5.05816 11.2472L0.68316 6.87222C0.565885 6.75495 0.5 6.59589 0.5 6.43003C0.5 6.26418 0.565885 6.10512 0.68316 5.98785C0.800435 5.87057 0.959495 5.80469 1.12535 5.80469C1.2912 5.80469 1.45026 5.87057 1.56753 5.98785L5.50035 9.92144L15.0582 0.362847C15.1754 0.245572 15.3345 0.179687 15.5003 0.179688C15.6662 0.179688 15.8253 0.245572 15.9425 0.362847C16.0598 0.480123 16.1257 0.639182 16.1257 0.805035C16.1257 0.970887 16.0598 1.12995 15.9425 1.24722Z" fill="#000000"/>
</svg>
