<svg width="14" height="14" viewBox="0 0 14 14" fill="none" xmlns="http://www.w3.org/2000/svg">
<path d="M7.94953 6.99989L13.8033 1.14618C14.0656 0.883963 14.0656 0.458873 13.8033 0.19666C13.5411 -0.0655533 13.116 -0.0655533 12.8538 0.19666L7 6.05037L1.14619 0.197555C0.883977 -0.0646584 0.458881 -0.0646584 0.196663 0.197555C-0.0655544 0.459768 -0.0655544 0.884858 0.196663 1.14707L6.05047 7.00078L0.197558 12.8536C-0.0646595 13.1158 -0.0646595 13.5409 0.197558 13.8031C0.329114 13.9338 0.500048 14 0.671877 14C0.843705 14 1.01553 13.9347 1.14619 13.8031L7 7.9494L12.8538 13.8031C12.9854 13.9338 13.1563 14 13.3281 14C13.5 14 13.6718 13.9347 13.8024 13.8031C14.0647 13.5409 14.0647 13.1158 13.8024 12.8536L7.94953 6.99989Z" fill="#000000"/>
</svg>
