<svg width="18" height="18" viewBox="0 0 18 18" fill="none" xmlns="http://www.w3.org/2000/svg">
<path fill-rule="evenodd" clip-rule="evenodd" d="M15.8906 1.40625H15.0469V0H13.6406V1.40625H4.35938V0H2.95312V1.40625H2.10938C0.946266 1.40625 0 2.35252 0 3.51562V15.8906C0 17.0537 0.946266 18 2.10938 18H15.8906C17.0537 18 18 17.0537 18 15.8906V3.51562C18 2.35252 17.0537 1.40625 15.8906 1.40625ZM16.5938 15.8906C16.5938 16.2783 16.2783 16.5938 15.8906 16.5938H2.10938C1.72167 16.5938 1.40625 16.2783 1.40625 15.8906V6.60938H16.5938V15.8906ZM1.40625 5.20312H16.5938V3.51562C16.5938 3.12792 16.2783 2.8125 15.8906 2.8125H15.0469V4.21875H13.6406V2.8125H4.35938V4.21875H2.95312V2.8125H2.10938C1.72167 2.8125 1.40625 3.12792 1.40625 3.51562V5.20312ZM2.67188 8.08594H4.07812V9.49219H2.67188V8.08594ZM6.89062 8.08594H5.48438V9.49219H6.89062V8.08594ZM8.29688 8.08594H9.70312V9.49219H8.29688V8.08594ZM12.5156 8.08594H11.1094V9.49219H12.5156V8.08594ZM13.9219 8.08594H15.3281V9.49219H13.9219V8.08594ZM4.07812 10.8984H2.67188V12.3047H4.07812V10.8984ZM5.48438 10.8984H6.89062V12.3047H5.48438V10.8984ZM9.70312 10.8984H8.29688V12.3047H9.70312V10.8984ZM11.1094 10.8984H12.5156V12.3047H11.1094V10.8984ZM4.07812 13.7109H2.67188V15.1172H4.07812V13.7109ZM5.48438 13.7109H6.89062V15.1172H5.48438V13.7109ZM9.70312 13.7109H8.29688V15.1172H9.70312V13.7109ZM11.1094 13.7109H12.5156V15.1172H11.1094V13.7109ZM15.3281 10.8984H13.9219V12.3047H15.3281V10.8984Z" fill="#CBCBCB"/>
</svg>
