<svg width="18" height="18" viewBox="0 0 18 18" fill="none" xmlns="http://www.w3.org/2000/svg">
<g clip-path="url(#clip0_52_23363)">
<path d="M16.4152 4.4761C16.3821 4.43167 16.3405 4.3942 16.2929 4.36584C16.2453 4.33749 16.1926 4.31879 16.1377 4.31082C16.0829 4.30286 16.027 4.30578 15.9733 4.31942C15.9195 4.33306 15.869 4.35715 15.8246 4.39031L9.01978 9.46969C8.99544 9.48794 8.96583 9.49781 8.93541 9.49781C8.90498 9.49781 8.87537 9.48794 8.85103 9.46969L2.17978 4.36781C2.13574 4.3342 2.0855 4.3096 2.03195 4.2954C1.9784 4.2812 1.92257 4.27769 1.86766 4.28507C1.81275 4.29245 1.75983 4.31057 1.71193 4.3384C1.66402 4.36623 1.62206 4.40322 1.58845 4.44727C1.55484 4.49131 1.53024 4.54154 1.51604 4.5951C1.50184 4.64865 1.49833 4.70448 1.50571 4.75939C1.51309 4.8143 1.53121 4.86722 1.55904 4.91512C1.58687 4.96303 1.62386 5.00499 1.66791 5.0386L6.91322 9.05063L1.72556 12.96C1.68087 12.9933 1.64318 13.0351 1.61465 13.083C1.58612 13.1309 1.5673 13.184 1.55927 13.2392C1.55124 13.2943 1.55415 13.3505 1.56785 13.4046C1.58154 13.4586 1.60574 13.5095 1.63908 13.5541C1.67241 13.5988 1.71422 13.6365 1.76212 13.6651C1.81002 13.6936 1.86306 13.7124 1.91824 13.7204C1.97341 13.7285 2.02962 13.7256 2.08366 13.7119C2.13771 13.6982 2.18853 13.674 2.23322 13.6406L7.60931 9.58219L8.33775 10.1447C8.5076 10.2747 8.71518 10.3459 8.92907 10.3474C9.14296 10.3489 9.35153 10.2807 9.52322 10.1531L10.2882 9.58219L15.7276 13.6406C15.772 13.6738 15.8225 13.6979 15.8762 13.7115C15.9299 13.7251 15.9858 13.728 16.0407 13.7201C16.0955 13.7121 16.1483 13.6934 16.1959 13.6651C16.2435 13.6367 16.2851 13.5993 16.3182 13.5548C16.3514 13.5104 16.3754 13.4599 16.3891 13.4062C16.4027 13.3525 16.4056 13.2966 16.3976 13.2418C16.3897 13.1869 16.371 13.1342 16.3426 13.0866C16.3143 13.0389 16.2769 12.9974 16.2324 12.9642L10.9927 9.04922L16.3295 5.0625C16.418 4.99566 16.4766 4.89665 16.4927 4.7869C16.5087 4.67715 16.4809 4.56549 16.4152 4.4761Z" fill="#CBCBCB"/>
<path d="M15.8906 2.67188H2.10938C1.54993 2.67188 1.01341 2.89411 0.617822 3.2897C0.222237 3.68528 0 4.22181 0 4.78125L0 13.2188C0 13.7782 0.222237 14.3147 0.617822 14.7103C1.01341 15.1059 1.54993 15.3281 2.10938 15.3281H15.8906C16.4501 15.3281 16.9866 15.1059 17.3822 14.7103C17.7778 14.3147 18 13.7782 18 13.2188V4.78125C18 4.22181 17.7778 3.68528 17.3822 3.2897C16.9866 2.89411 16.4501 2.67188 15.8906 2.67188ZM17.1562 13.2188C17.1562 13.5544 17.0229 13.8763 16.7856 14.1137C16.5482 14.351 16.2263 14.4844 15.8906 14.4844H2.10938C1.77371 14.4844 1.45179 14.351 1.21444 14.1137C0.977092 13.8763 0.84375 13.5544 0.84375 13.2188V4.78125C0.84375 4.44559 0.977092 4.12367 1.21444 3.88632C1.45179 3.64897 1.77371 3.51562 2.10938 3.51562H15.8906C16.2263 3.51562 16.5482 3.64897 16.7856 3.88632C17.0229 4.12367 17.1562 4.44559 17.1562 4.78125V13.2188Z" fill="#CBCBCB"/>
</g>
<defs>
<clipPath id="clip0_52_23363">
<rect width="18" height="18" fill="white"/>
</clipPath>
</defs>
</svg>
