<svg width="2" height="9" viewBox="0 0 2 9" fill="none" xmlns="http://www.w3.org/2000/svg">
<path d="M0.333334 5.14286V0.642857C0.333334 0.472361 0.403572 0.308848 0.528596 0.188289C0.65362 0.0677295 0.823189 0 1 0C1.17681 0 1.34638 0.0677295 1.47141 0.188289C1.59643 0.308848 1.66667 0.472361 1.66667 0.642857V5.14286C1.66667 5.31335 1.59643 5.47687 1.47141 5.59743C1.34638 5.71798 1.17681 5.78571 1 5.78571C0.823189 5.78571 0.65362 5.71798 0.528596 5.59743C0.403572 5.47687 0.333334 5.31335 0.333334 5.14286ZM2 8.03571C2 8.22643 1.94135 8.41287 1.83147 8.57144C1.72159 8.73002 1.56541 8.85361 1.38268 8.9266C1.19996 8.99958 0.998891 9.01868 0.80491 8.98147C0.610929 8.94426 0.432746 8.85242 0.292894 8.71757C0.153041 8.58271 0.0578004 8.41089 0.0192152 8.22384C-0.01937 8.03678 0.000433286 7.8429 0.0761209 7.6667C0.151809 7.4905 0.279981 7.3399 0.44443 7.23394C0.60888 7.12798 0.802219 7.07143 1 7.07143C1.26522 7.07143 1.51957 7.17302 1.70711 7.35386C1.89464 7.5347 2 7.77997 2 8.03571Z" fill="#000000"/>
</svg>
