<svg width="14" height="12" viewBox="0 0 14 12" fill="none" xmlns="http://www.w3.org/2000/svg">
<path d="M6.63158 12C6.44276 12 6.26072 11.9304 6.11885 11.8041C5.58305 11.3276 5.06648 10.8799 4.61072 10.4849L4.60839 10.4829C3.27218 9.32487 2.11831 8.32484 1.31547 7.33973C0.418015 6.23843 0 5.19425 0 4.05354C0 2.94525 0.373694 1.92279 1.05217 1.17436C1.73875 0.417075 2.68082 0 3.70517 0C4.47077 0 5.17192 0.24615 5.78907 0.731554C6.10053 0.976572 6.38285 1.27644 6.63158 1.62621C6.8804 1.27644 7.16262 0.976572 7.47419 0.731554C8.09134 0.24615 8.79249 0 9.55809 0C10.5823 0 11.5245 0.417075 12.2111 1.17436C12.8896 1.92279 13.2632 2.94525 13.2632 4.05354C13.2632 5.19425 12.8452 6.23843 11.9478 7.33962C11.145 8.32484 9.99118 9.32477 8.65517 10.4827C8.19861 10.8782 7.68122 11.3267 7.14421 11.8043C7.00244 11.9304 6.8203 12 6.63158 12V12Z" fill="#FF7878"/>
</svg>
