<svg width="10" height="10" viewBox="0 0 10 10" fill="none" xmlns="http://www.w3.org/2000/svg">
<g opacity="0.25">
<path fill-rule="evenodd" clip-rule="evenodd" d="M0 1C0 0.447716 0.447715 0 1 0H1.85714C2.40943 0 2.85714 0.447715 2.85714 1V1.85714C2.85714 2.40943 2.40943 2.85714 1.85714 2.85714H1C0.447716 2.85714 0 2.40943 0 1.85714V1ZM0 4.57143C0 4.01914 0.447715 3.57143 1 3.57143H4C4.55228 3.57143 5 4.01914 5 4.57143V5.42857C5 5.98086 4.55228 6.42857 4 6.42857H1C0.447715 6.42857 0 5.98086 0 5.42857V4.57143ZM1 7.14286C0.447715 7.14286 0 7.59057 0 8.14286V9C0 9.55229 0.447715 10 1 10H9C9.55229 10 10 9.55228 10 9V8.14286C10 7.59057 9.55228 7.14286 9 7.14286H1Z" fill="black"/>
</g>
</svg>
