<svg width="24" height="24" viewBox="0 0 24 24" fill="none" xmlns="http://www.w3.org/2000/svg">
<path d="M16.4643 5C14.6205 5 13.0063 5.78644 12 7.11576C10.9938 5.78644 9.37946 5 7.53571 5C6.06806 5.00164 4.66099 5.58067 3.6232 6.61005C2.58541 7.63944 2.00165 9.03511 2 10.4909C2 16.6903 11.267 21.7082 11.6616 21.9154C11.7656 21.9709 11.8819 22 12 22C12.1181 22 12.2344 21.9709 12.3384 21.9154C12.733 21.7082 22 16.6903 22 10.4909C21.9983 9.03511 21.4146 7.63944 20.3768 6.61005C19.339 5.58067 17.9319 5.00164 16.4643 5ZM12 20.4807C10.3696 19.5384 3.42857 15.2458 3.42857 10.4909C3.42999 9.41085 3.86316 8.37546 4.63309 7.61176C5.40302 6.84807 6.44687 6.41841 7.53571 6.417C9.27232 6.417 10.7304 7.33451 11.3393 8.80819C11.3931 8.93814 11.4846 9.04928 11.6023 9.1275C11.7199 9.20572 11.8584 9.24748 12 9.24748C12.1416 9.24748 12.2801 9.20572 12.3977 9.1275C12.5154 9.04928 12.6069 8.93814 12.6607 8.80819C13.2696 7.33185 14.7277 6.417 16.4643 6.417C17.5531 6.41841 18.597 6.84807 19.3669 7.61176C20.1368 8.37546 20.57 9.41085 20.5714 10.4909C20.5714 15.2387 13.6286 19.5375 12 20.4807Z" fill="black"/>
</svg>
