<svg width="14" height="18" viewBox="0 0 14 18" fill="none" xmlns="http://www.w3.org/2000/svg">
<path fill-rule="evenodd" clip-rule="evenodd" d="M0 6.74999C0.00494246 3.02412 3.02413 0.00494245 6.75 0C10.4759 0.00494245 13.4951 3.02412 13.5 6.74999C13.5 11.5959 7.21125 17.6653 6.94406 17.9212C6.836 18.0263 6.664 18.0263 6.55594 17.9212C6.28875 17.6653 0 11.5959 0 6.74999ZM3.65625 6.74999C3.65625 8.45862 5.04137 9.84374 6.75 9.84374C8.45821 9.84272 9.84273 8.4582 9.84375 6.74999C9.84375 5.04136 8.45863 3.65625 6.75 3.65625C5.04137 3.65625 3.65625 5.04136 3.65625 6.74999Z" fill="#CBCBCB"/>
</svg>
