<svg width="10" height="10" viewBox="0 0 10 10" fill="none" xmlns="http://www.w3.org/2000/svg">
<g opacity="0.8">
<path d="M3.63235 0H0.761339C0.341512 0 0 0.341514 0 0.761344V3.63238C0 4.05221 0.341512 4.39372 0.761339 4.39372H3.63235C4.05218 4.39372 4.39369 4.05221 4.39369 3.63238V0.761344C4.39363 0.341514 4.05218 0 3.63235 0Z" fill="black"/>
<path d="M9.2388 0H6.36778C5.94796 0 5.60645 0.341514 5.60645 0.761344V3.63238C5.60645 4.05221 5.94796 4.39372 6.36778 4.39372H9.2388C9.65863 4.39372 10.0001 4.05221 10.0001 3.63238V0.761344C10.0001 0.341514 9.65863 0 9.2388 0Z" fill="black"/>
<path d="M3.63235 5.6062H0.761339C0.341512 5.6062 0 5.94768 0 6.36751V9.23855C0 9.65838 0.341512 9.99989 0.761339 9.99989H3.63235C4.05218 9.99989 4.39369 9.65838 4.39369 9.23855V6.36751C4.39363 5.94768 4.05218 5.6062 3.63235 5.6062Z" fill="black"/>
<path d="M9.2388 5.6062H6.36778C5.94796 5.6062 5.60645 5.94772 5.60645 6.36755V9.23858C5.60645 9.65841 5.94796 9.99992 6.36778 9.99992H9.2388C9.65863 9.99989 10.0001 9.65838 10.0001 9.23855V6.36751C10.0001 5.94768 9.65863 5.6062 9.2388 5.6062Z" fill="black"/>
</g>
</svg>
