<svg width="12" height="10" viewBox="0 0 12 10" fill="none" xmlns="http://www.w3.org/2000/svg">
<g opacity="0.25">
<path fill-rule="evenodd" clip-rule="evenodd" d="M0.712404 0H1.85717C2.24998 0 2.56958 0.319534 2.56958 0.712266V1.74487C2.56958 2.13761 2.24998 2.45714 1.85717 2.45714H0.712404C0.319596 2.45714 0 2.13761 0 1.74487V0.712266C0 0.319534 0.319596 0 0.712404 0ZM4.16129 0H11.2876C11.6804 0 12 0.319534 12 0.712266V1.74487C12 2.13761 11.6804 2.45714 11.2876 2.45714H4.16129C3.76848 2.45714 3.44889 2.13761 3.44889 1.74487V0.712266C3.44889 0.319534 3.76848 0 4.16129 0ZM4.16129 3.77143H11.2876C11.6804 3.77143 12 4.09096 12 4.4837V5.5163C12 5.90904 11.6804 6.22857 11.2876 6.22857H4.16129C3.76848 6.22857 3.44889 5.90904 3.44889 5.5163V4.4837C3.44889 4.09096 3.76848 3.77143 4.16129 3.77143ZM11.2876 7.54286H4.16129C3.76848 7.54286 3.44889 7.86239 3.44889 8.25517V9.28773C3.44889 9.68047 3.76848 10 4.16129 10H11.2876C11.6804 10 12 9.68047 12 9.28773V8.25517C12 7.86239 11.6804 7.54286 11.2876 7.54286ZM1.85717 3.77143H0.712404C0.319596 3.77143 0 4.09096 0 4.4837V5.5163C0 5.90904 0.319596 6.22857 0.712404 6.22857H1.85717C2.24998 6.22857 2.56958 5.90904 2.56958 5.5163V4.4837C2.56958 4.09096 2.24998 3.77143 1.85717 3.77143ZM0.712404 7.54286H1.85717C2.24998 7.54286 2.56958 7.86239 2.56958 8.25517V9.28773C2.56958 9.68047 2.24998 10 1.85717 10H0.712404C0.319596 10 0 9.68047 0 9.28773V8.25517C0 7.86239 0.319596 7.54286 0.712404 7.54286Z" fill="black"/>
</g>
</svg>
