<svg width="18" height="18" viewBox="0 0 18 18" fill="none" xmlns="http://www.w3.org/2000/svg">
<path d="M15.596 12.5283C14.4941 11.5982 13.3758 11.0349 12.2874 11.9635L11.6375 12.5248C11.162 12.9322 10.2779 14.8358 6.85972 10.9555C3.44224 7.08008 5.47593 6.47668 5.95214 6.07277L6.6056 5.51081C7.68829 4.58007 7.2797 3.40838 6.49883 2.20228L6.0276 1.47173C5.24316 0.268438 4.38897 -0.521817 3.30344 0.407522L2.71689 0.913285C2.23712 1.25819 0.896037 2.37929 0.570732 4.50912C0.179228 7.06463 1.41425 9.99103 4.24376 13.2019C7.06971 16.4142 9.83658 18.0277 12.4575 17.9996C14.6357 17.9765 15.9512 16.823 16.3626 16.4037L16.9513 15.8972C18.034 14.9686 17.3613 14.0231 16.2587 13.0909L15.596 12.5283Z" fill="#CBCBCB"/>
</svg>
