<svg width="20" height="15" viewBox="0 0 20 15" fill="none" xmlns="http://www.w3.org/2000/svg">
<path fill-rule="evenodd" clip-rule="evenodd" d="M17.3682 0.448024C18.2078 0.694967 18.8676 1.41992 19.0923 2.34243C19.4984 4.01281 19.5 7.5 19.5 7.5C19.5 7.5 19.5 10.9872 19.0923 12.6576C18.8676 13.5801 18.2078 14.305 17.3682 14.5519C15.8482 15 9.74997 15 9.74997 15C9.74997 15 3.65183 15 2.1317 14.5519C1.29219 14.305 0.63245 13.5801 0.407721 12.6576C0 10.9872 0 7.5 0 7.5C0 7.5 0 4.01281 0.407721 2.34243C0.63245 1.41992 1.29219 0.694967 2.1317 0.448024C3.65183 0 9.74997 0 9.74997 0C9.74997 0 15.8482 0 17.3682 0.448024ZM12.866 7.49932L7.80001 10.7131V4.28552L12.866 7.49932Z" fill="#000000"/>
</svg>
