<svg width="7" height="10" viewBox="0 0 7 10" fill="none" xmlns="http://www.w3.org/2000/svg">
<path d="M4.0625 8.5625C4.0625 8.74792 4.00752 8.92918 3.9045 9.08335C3.80149 9.23752 3.65507 9.35768 3.48377 9.42864C3.31246 9.49959 3.12396 9.51816 2.9421 9.48199C2.76025 9.44581 2.5932 9.35652 2.46209 9.22541C2.33098 9.0943 2.24169 8.92725 2.20551 8.7454C2.16934 8.56354 2.18791 8.37504 2.25886 8.20374C2.32982 8.03243 2.44998 7.88601 2.60415 7.783C2.75832 7.67998 2.93958 7.625 3.125 7.625C3.37364 7.625 3.6121 7.72377 3.78791 7.89959C3.96373 8.0754 4.0625 8.31386 4.0625 8.5625ZM3.125 0.125C1.40156 0.125 0 1.38672 0 2.9375V3.25C0 3.41576 0.0658481 3.57473 0.183058 3.69194C0.300269 3.80915 0.45924 3.875 0.625 3.875C0.79076 3.875 0.949731 3.80915 1.06694 3.69194C1.18415 3.57473 1.25 3.41576 1.25 3.25V2.9375C1.25 2.07812 2.09141 1.375 3.125 1.375C4.15859 1.375 5 2.07812 5 2.9375C5 3.79688 4.15859 4.5 3.125 4.5C2.95924 4.5 2.80027 4.56585 2.68306 4.68306C2.56585 4.80027 2.5 4.95924 2.5 5.125V5.75C2.5 5.91576 2.56585 6.07473 2.68306 6.19194C2.80027 6.30915 2.95924 6.375 3.125 6.375C3.29076 6.375 3.44973 6.30915 3.56694 6.19194C3.68415 6.07473 3.75 5.91576 3.75 5.75V5.69375C5.175 5.43203 6.25 4.29531 6.25 2.9375C6.25 1.38672 4.84844 0.125 3.125 0.125Z" fill="#000000"/>
</svg>
