<svg width="18" height="18" viewBox="0 0 18 18" fill="none" xmlns="http://www.w3.org/2000/svg">
<path fill-rule="evenodd" clip-rule="evenodd" d="M11.6854 12.9579C10.4162 13.9467 8.85331 14.4835 7.24444 14.4835C5.63452 14.4843 4.07027 13.9485 2.79892 12.9607C-0.358984 10.5071 -0.930246 5.95774 1.52294 2.79935C3.97612 -0.359039 8.52476 -0.930387 11.6827 1.52317C14.8406 3.97672 15.4118 8.52609 12.9587 11.6845L17.7472 16.4738C18.0843 16.8228 18.0843 17.376 17.7472 17.725C17.4018 18.0828 16.8317 18.0927 16.474 17.7472L11.6854 12.9579ZM11.0921 3.39453C8.96712 1.26923 5.52185 1.26927 3.39686 3.39461L3.36886 3.42262C1.25936 5.54792 1.27188 8.98116 3.39686 11.091L3.39694 11.0911C5.52196 13.2164 8.96724 13.2163 11.0922 11.091C13.2172 8.96563 13.2172 5.51984 11.0921 3.39453Z" fill="#9B9B9B"/>
</svg>
