<svg width="25" height="20" viewBox="0 0 25 20" fill="none" xmlns="http://www.w3.org/2000/svg">
<path fill-rule="evenodd" clip-rule="evenodd" d="M20 10C22.7614 10 25 7.76137 25 5C25 2.23857 22.7614 0 20 0C17.6702 0 15.7126 1.59346 15.1575 3.75H1.25C0.55965 3.75 0 4.30965 0 5C0 5.69036 0.55965 6.25 1.25 6.25H15.1575C15.7126 8.4065 17.6702 10 20 10ZM17.5 5C17.5 6.38071 18.6192 7.5 20 7.5C21.3808 7.5 22.5 6.38071 22.5 5C22.5 3.61929 21.3808 2.5 20 2.5C18.6192 2.5 17.5 3.61929 17.5 5ZM0 15C0 12.2386 2.23857 10 5 10C7.3298 10 9.28743 11.5935 9.84247 13.75H23.75C24.4404 13.75 25 14.3096 25 15C25 15.6904 24.4404 16.25 23.75 16.25H9.84247C9.28743 18.4065 7.3298 20 5 20C2.23857 20 0 17.7614 0 15ZM7.5 15C7.5 13.6193 6.38071 12.5 5 12.5C3.61929 12.5 2.5 13.6193 2.5 15C2.5 16.3808 3.61929 17.5 5 17.5C6.38071 17.5 7.5 16.3808 7.5 15Z" fill="#0085CF"/>
</svg>
