<svg width="24" height="24" viewBox="0 0 24 24" fill="none" xmlns="http://www.w3.org/2000/svg">
<path fill-rule="evenodd" clip-rule="evenodd" d="M11.9737 1C14.9048 1 17.6607 2.14421 19.7333 4.22182C21.8059 6.29942 22.9474 9.06184 22.9474 12C22.9474 14.9382 21.8059 17.7006 19.7333 19.7782C17.6607 21.8558 14.9048 23 11.9737 23C9.04257 23 6.28676 21.8558 4.21412 19.7782C2.14148 17.7006 1 14.9382 1 12C1 9.06184 2.14148 6.29942 4.21412 4.22182C6.28676 2.14421 9.04257 1 11.9737 1ZM11.9737 13.9081C8.80564 13.9081 6.125 16.321 5.76265 19.4464C7.44548 20.8591 9.61205 21.7109 11.9737 21.7109C14.3354 21.7109 16.5021 20.8589 18.1849 19.4462C18.023 18.0512 17.3936 16.7449 16.3956 15.7443C15.2143 14.5603 13.6438 13.9081 11.9737 13.9081ZM11.9737 12.5804C10.136 12.5804 8.6407 11.0815 8.6407 9.23943C8.6407 7.39714 10.136 5.89844 11.9737 5.89844C13.8114 5.89844 15.3067 7.39714 15.3067 9.23943C15.3067 11.0815 13.8114 12.5804 11.9737 12.5804ZM17.3048 14.8329C18.2807 15.8111 18.9641 17.0322 19.2917 18.3565C20.7673 16.652 21.6614 14.4287 21.6614 12C21.6614 6.64536 17.3155 2.28906 11.9737 2.28906C6.63186 2.28906 2.28598 6.64536 2.28598 12C2.28598 14.4282 3.1798 16.651 4.65483 18.3555C5.00312 16.9426 5.75428 15.655 6.83598 14.6453C7.58295 13.9477 8.45115 13.4178 9.38935 13.0751C8.16248 12.2419 7.35472 10.8335 7.35472 9.23943C7.35472 6.68648 9.42686 4.60938 11.9737 4.60938C14.5206 4.60938 16.5927 6.68648 16.5927 9.23943C16.5927 10.8326 15.7856 12.2405 14.5597 13.0739C15.5795 13.4463 16.5145 14.0407 17.3048 14.8329Z" fill="#ADADAD"/>
<path d="M5.76265 19.4464L5.51431 19.4176L5.49881 19.5513L5.60191 19.6378L5.76265 19.4464ZM18.1849 19.4462L18.3457 19.6377L18.4488 19.5511L18.4333 19.4174L18.1849 19.4462ZM16.3956 15.7443L16.5726 15.5678L16.5726 15.5677L16.3956 15.7443ZM19.2917 18.3565L19.0491 18.4166L19.165 18.8849L19.4808 18.5201L19.2917 18.3565ZM17.3048 14.8329L17.1278 15.0095L17.1278 15.0095L17.3048 14.8329ZM4.65483 18.3555L4.46579 18.5191L4.78194 18.8844L4.89757 18.4153L4.65483 18.3555ZM6.83598 14.6453L7.00657 14.828L7.00661 14.828L6.83598 14.6453ZM9.38935 13.0751L9.47514 13.3099L9.93353 13.1424L9.5298 12.8682L9.38935 13.0751ZM14.5597 13.0739L14.4192 12.8671L14.0158 13.1414L14.474 13.3087L14.5597 13.0739ZM19.9103 4.04525C17.7908 1.9207 14.9713 0.75 11.9737 0.75V1.25C14.8383 1.25 17.5305 2.36773 19.5563 4.39838L19.9103 4.04525ZM23.1974 12C23.1974 8.99573 22.0297 6.16979 19.9103 4.04525L19.5563 4.39838C21.5821 6.42906 22.6974 9.12795 22.6974 12H23.1974ZM19.9103 19.9547C22.0297 17.8302 23.1974 15.0043 23.1974 12H22.6974C22.6974 14.872 21.5821 17.5709 19.5563 19.6016L19.9103 19.9547ZM11.9737 23.25C14.9713 23.25 17.7908 22.0793 19.9103 19.9547L19.5563 19.6016C17.5305 21.6323 14.8383 22.75 11.9737 22.75V23.25ZM4.03713 19.9547C6.15661 22.0793 8.97608 23.25 11.9737 23.25V22.75C9.10907 22.75 6.4169 21.6323 4.3911 19.6016L4.03713 19.9547ZM0.75 12C0.75 15.0043 1.91767 17.8302 4.03713 19.9547L4.3911 19.6016C2.36528 17.5709 1.25 14.872 1.25 12H0.75ZM4.03713 4.04525C1.91767 6.16979 0.75 8.99573 0.75 12H1.25C1.25 9.12795 2.36528 6.42906 4.3911 4.39838L4.03713 4.04525ZM11.9737 0.75C8.97608 0.75 6.15661 1.9207 4.03713 4.04525L4.3911 4.39838C6.4169 2.36773 9.10907 1.25 11.9737 1.25V0.75ZM6.01099 19.4751C6.35882 16.4751 8.93343 14.1581 11.9737 14.1581V13.6581C8.67784 13.6581 5.89119 16.167 5.51431 19.4176L6.01099 19.4751ZM11.9737 21.4609C9.67329 21.4609 7.56309 20.6314 5.9234 19.2549L5.60191 19.6378C7.32786 21.0868 9.55082 21.9609 11.9737 21.9609V21.4609ZM18.0242 19.2547C16.3845 20.6313 14.2741 21.4609 11.9737 21.4609V21.9609C14.3966 21.9609 16.6197 21.0866 18.3457 19.6377L18.0242 19.2547ZM16.2186 15.9209C17.1769 16.8816 17.7812 18.1359 17.9366 19.475L18.4333 19.4174C18.2649 17.9665 17.6103 16.6081 16.5726 15.5678L16.2186 15.9209ZM11.9737 14.1581C13.5773 14.1581 15.0841 14.7838 16.2186 15.9209L16.5726 15.5677C15.3444 14.3368 13.7103 13.6581 11.9737 13.6581V14.1581ZM8.3907 9.23943C8.3907 11.219 9.99736 12.8304 11.9737 12.8304V12.3304C10.2746 12.3304 8.8907 10.944 8.8907 9.23943H8.3907ZM11.9737 5.64844C9.99736 5.64844 8.3907 7.25963 8.3907 9.23943H8.8907C8.8907 7.53466 10.2746 6.14844 11.9737 6.14844V5.64844ZM15.5567 9.23943C15.5567 7.25963 13.95 5.64844 11.9737 5.64844V6.14844C13.6728 6.14844 15.0567 7.53466 15.0567 9.23943H15.5567ZM11.9737 12.8304C13.9501 12.8304 15.5567 11.219 15.5567 9.23943H15.0567C15.0567 10.944 13.6728 12.3304 11.9737 12.3304V12.8304ZM19.5344 18.2965C19.1959 16.9283 18.49 15.6669 17.4818 14.6564L17.1278 15.0095C18.0715 15.9554 18.7322 17.1361 19.0491 18.4166L19.5344 18.2965ZM21.4114 12C21.4114 14.3663 20.5405 16.532 19.1027 18.1929L19.4808 18.5201C20.994 16.7721 21.9114 14.4912 21.9114 12H21.4114ZM11.9737 2.53906C17.1769 2.53906 21.4114 6.78286 21.4114 12H21.9114C21.9114 6.50785 17.4542 2.03906 11.9737 2.03906V2.53906ZM2.53598 12C2.53598 6.78286 6.7705 2.53906 11.9737 2.53906V2.03906C6.49323 2.03906 2.03598 6.50785 2.03598 12H2.53598ZM4.84387 18.1919C3.40658 16.531 2.53598 14.3658 2.53598 12H2.03598C2.03598 14.4907 2.95303 16.771 4.46579 18.5191L4.84387 18.1919ZM6.66538 14.4625C5.54819 15.5054 4.77198 16.8357 4.4121 18.2957L4.89757 18.4153C5.23425 17.0495 5.96037 15.8046 7.00657 14.828L6.66538 14.4625ZM9.30357 12.8402C8.33396 13.1945 7.43688 13.742 6.66534 14.4625L7.00661 14.828C7.72902 14.1533 8.56835 13.6411 9.47514 13.3099L9.30357 12.8402ZM7.10472 9.23943C7.10472 10.9199 7.95652 12.4042 9.2489 13.2819L9.5298 12.8682C8.36844 12.0795 7.60472 10.7471 7.60472 9.23943H7.10472ZM11.9737 4.35938C9.28822 4.35938 7.10472 6.54897 7.10472 9.23943H7.60472C7.60472 6.82398 9.56549 4.85938 11.9737 4.85938V4.35938ZM16.8427 9.23943C16.8427 6.54897 14.6592 4.35938 11.9737 4.35938V4.85938C14.3819 4.85938 16.3427 6.82398 16.3427 9.23943H16.8427ZM14.7003 13.2806C15.9916 12.4028 16.8427 10.919 16.8427 9.23943H16.3427C16.3427 10.7462 15.5796 12.0783 14.4192 12.8671L14.7003 13.2806ZM17.4818 14.6564C16.6658 13.8384 15.6997 13.2241 14.6455 12.8391L14.474 13.3087C15.4592 13.6686 16.3632 14.243 17.1278 15.0095L17.4818 14.6564Z" fill="#ADADAD"/>
</svg>
