<svg width="27" height="30" viewBox="0 0 27 30" fill="none" xmlns="http://www.w3.org/2000/svg">
<path d="M26.3274 22.8814C25.5816 22.2921 24.6731 21.8679 23.6874 21.6621L18.9881 20.7193C18.4952 20.625 18.1395 20.1836 18.1395 19.6693V18.5914C18.4416 18.1671 18.7266 17.6036 19.0245 17.0143C19.2559 16.5579 19.6052 15.87 19.7788 15.6921C20.7302 14.7364 21.6495 13.6629 21.9345 12.2786C22.2002 10.98 21.9388 10.2986 21.6324 9.75C21.6324 8.38071 21.5895 6.66643 21.2659 5.41929C21.2274 3.73071 20.9209 2.78143 20.1495 1.95C19.6052 1.36071 18.8038 1.22357 18.1588 1.11429C17.9059 1.07143 17.5566 1.01143 17.4281 0.942857C16.2859 0.325714 15.1566 0.0235714 13.8088 0C10.9866 0.115714 7.51736 1.91143 6.35593 5.11286C5.99593 6.08786 6.03236 7.68857 6.06236 8.97429L6.03451 9.74786C5.75808 10.2879 5.48593 10.9736 5.75379 12.2764C6.03665 13.6629 6.95593 14.7386 7.92451 15.7071C8.08308 15.87 8.44093 16.5643 8.67665 17.0229C8.97879 17.61 9.26593 18.1714 9.56808 18.5936V19.6714C9.56808 20.1836 9.21022 20.625 8.71522 20.7214L4.01165 21.6643C3.03236 21.8721 2.12379 22.2921 1.38022 22.8814C1.14879 23.0679 1.00308 23.34 0.979505 23.6357C0.955934 23.9314 1.05451 24.2207 1.25379 24.4414C4.45522 27.9729 9.04736 30 13.8538 30C18.6602 30 23.2545 27.975 26.4538 24.4414C26.6531 24.2207 26.7538 23.9293 26.7281 23.6336C26.7045 23.3379 26.5588 23.0657 26.3274 22.8814Z" fill="#C6C6C6"/>
</svg>
