<svg width="20" height="20" viewBox="0 0 20 20" fill="none" xmlns="http://www.w3.org/2000/svg">
<g opacity="0.4">
<path fill-rule="evenodd" clip-rule="evenodd" d="M10 20C15.5062 20 20 15.5059 20 10C20 4.49375 15.5059 0 10 0C4.49379 0 0 4.4941 0 10C0 15.5063 4.4941 20 10 20ZM12.9667 18.3147C13.5333 17.5907 13.9676 16.7271 14.2938 15.859H16.5971C15.6211 16.957 14.3763 17.8102 12.9667 18.3147ZM14.6726 14.6875H17.4775C18.2348 13.4838 18.7095 12.0855 18.8082 10.5859H15.2644C15.2212 12.0361 15.0184 13.4302 14.6726 14.6875ZM17.4775 5.3125C18.2348 6.51621 18.7095 7.91453 18.8082 9.41406H15.2644C15.2212 7.96391 15.0184 6.56984 14.6726 5.3125H17.4775ZM14.2937 4.14062H16.5971C15.6211 3.04297 14.3763 2.18977 12.9666 1.68527C13.5334 2.40953 13.9677 3.27324 14.2937 4.14062ZM10.5859 1.27211C11.7358 1.66184 12.5607 3.02934 13.0325 4.14062H10.5859V1.27211ZM13.4542 5.3125H10.5859V9.41406H14.0921C14.0459 7.94543 13.8268 6.54602 13.4542 5.3125ZM10.5859 10.5855H14.0921C14.0459 12.0546 13.8268 13.454 13.4542 14.6875H10.5859V10.5855ZM13.0325 15.859H10.5859V18.7279C11.7348 18.3385 12.5599 16.9725 13.0325 15.859ZM3.40289 15.8594H5.70625C6.03234 16.7268 6.4666 17.5905 7.03336 18.3147C5.62371 17.8103 4.37887 16.957 3.40289 15.8594ZM6.96754 15.8594C7.4402 16.9727 8.26519 18.3385 9.41406 18.7279V15.8594H6.96754ZM9.41406 14.6875H6.54582C6.17324 13.454 5.95406 12.0546 5.90793 10.5859H9.41406V14.6875ZM5.90793 9.41406H9.41406V5.3125H6.54582C6.17324 6.54602 5.95406 7.94543 5.90793 9.41406ZM9.41406 1.27211V4.14062H6.96754C7.44016 3.02742 8.26512 1.66152 9.41406 1.27211ZM5.70621 4.14062C6.03246 3.27285 6.46672 2.4093 7.03332 1.68527C5.62371 2.18973 4.37887 3.04297 3.40289 4.14062H5.70621ZM2.52254 5.31211H5.32738C4.9816 6.56984 4.77875 7.96391 4.73562 9.41406H1.1918C1.29055 7.91453 1.76523 6.51621 2.52254 5.31211ZM4.73562 10.5859H1.1918C1.29055 12.0855 1.76523 13.4838 2.52254 14.6875H5.32738C4.9816 13.4302 4.77875 12.0361 4.73562 10.5859Z" fill="black"/>
</g>
</svg>
