<svg width="12" height="16" viewBox="0 0 12 16" fill="none" xmlns="http://www.w3.org/2000/svg">
<path d="M2.38108 12.1899H0.539113V10.6624H2.38108V8.57335H0.539113V7.04586H2.38108V0.374335H7.36788C8.74562 0.374335 9.83882 0.756206 10.6475 1.51995C11.4711 2.26872 11.883 3.25709 11.883 4.48507C11.883 5.69808 11.4711 6.68645 10.6475 7.4502C9.82384 8.19897 8.73064 8.57335 7.36788 8.57335H4.1332V10.6624H10.0859V12.1899H4.1332V15.2H2.38108V12.1899ZM7.32296 7.04586C8.22148 7.04586 8.91783 6.81374 9.41202 6.34951C9.92118 5.88527 10.1758 5.27128 10.1758 4.50754C10.1758 3.72882 9.92118 3.09985 9.41202 2.62064C8.91783 2.14143 8.22148 1.90182 7.32296 1.90182H4.1332V7.04586H7.32296Z" fill="#000000"/>
</svg>
