<svg width="84" height="88" viewBox="0 0 84 88" fill="none" xmlns="http://www.w3.org/2000/svg">
<path fill-rule="evenodd" clip-rule="evenodd" d="M82.9987 8.6907V61.3134C82.9987 65.5574 79.5533 69.0027 75.3093 69.0027H24.4413C22.8627 69.1334 21.3307 70.0254 19.8547 71.732L8.68933 84.0027C4 88.0014 1 85.5574 1 81.3134V8.6907C1 4.4467 4.44533 1.00137 8.68933 1.00137H75.3093C79.5533 1.00137 82.9987 4.4467 82.9987 8.6907Z" stroke="white" stroke-width="2" stroke-miterlimit="79.8403"/>
<path d="M32.3174 25.1988C32.3374 19.3268 35.9014 14.7655 42.5934 14.7655C48.8414 14.7655 52.6241 19.5748 52.6241 25.0255C52.5921 28.5988 51.044 31.4868 48.1174 34.3988L45.0494 37.3015C42.9841 39.4761 41.9627 42.0401 42.0001 45.0015V48.0508" stroke="white" stroke-width="2" stroke-miterlimit="79.8403" stroke-linecap="round" stroke-linejoin="round"/>
</svg>
